<svg width="27" height="27" viewBox="0 0 27 27" fill="none" xmlns="http://www.w3.org/2000/svg">
<path d="M13.5 0C6.05125 0 0 6.05125 0 13.5C0 15.8943 0.656621 18.1287 1.7517 20.0792L0.0217816 26.2548C-0.00585544 26.3537 -0.00710418 26.458 0.0181599 26.5575C0.043424 26.6569 0.0943182 26.748 0.165768 26.8217C0.237218 26.8953 0.326727 26.949 0.425371 26.9772C0.524014 27.0055 0.628346 27.0074 0.727964 26.9828L7.16729 25.387C9.05946 26.3972 11.2065 27 13.5 27C20.9488 27 27 20.9488 27 13.5C27 6.05125 20.9488 0 13.5 0ZM13.5 1.17391C20.3143 1.17391 25.8261 6.68571 25.8261 13.5C25.8261 20.3143 20.3143 25.8261 13.5 25.8261C11.3154 25.8261 9.26929 25.2565 7.49057 24.2613C7.36048 24.1886 7.20761 24.1681 7.06297 24.2039L1.42383 25.6014L2.93593 20.2064C2.95757 20.1302 2.96354 20.0504 2.95349 19.9717C2.94344 19.8931 2.91758 19.8174 2.87746 19.749C1.79649 17.916 1.17391 15.7833 1.17391 13.5C1.17391 6.68571 6.68571 1.17391 13.5 1.17391ZM8.59456 6.45652C8.21829 6.45652 7.68094 6.5965 7.23951 7.07214C6.97437 7.35782 5.86957 8.43428 5.86957 10.3268C5.86957 12.2998 7.23799 14.0023 7.40345 14.2211H7.40459V14.2222C7.3889 14.2016 7.6146 14.5285 7.91589 14.9204C8.21717 15.3123 8.63848 15.8271 9.16776 16.3843C10.2263 17.4989 11.7146 18.787 13.5619 19.5748C14.4126 19.937 15.0837 20.1557 15.5922 20.3153C16.5345 20.6112 17.3927 20.5663 18.0374 20.4713C18.52 20.4002 19.0508 20.1685 19.5759 19.8361C20.1011 19.5038 20.6157 19.0906 20.8427 18.4628C21.0053 18.0127 21.0879 17.5967 21.1178 17.2545C21.1328 17.0833 21.1347 16.9323 21.1236 16.7925C21.1124 16.6526 21.1243 16.5455 20.994 16.3316C20.7207 15.8829 20.4113 15.8712 20.0884 15.7114C19.9089 15.6226 19.3981 15.3732 18.8858 15.129C18.374 14.8852 17.9309 14.6692 17.658 14.5719C17.4856 14.5099 17.275 14.4206 16.9713 14.455C16.6676 14.4893 16.3676 14.7085 16.1929 14.9674C16.0273 15.2128 15.3609 15.9995 15.1577 16.2307C15.155 16.2291 15.1726 16.2372 15.0923 16.1975C14.8411 16.0731 14.5337 15.9674 14.0789 15.7275C13.6241 15.4875 13.0552 15.1333 12.4327 14.5845V14.5833C11.5061 13.7676 10.8571 12.7435 10.6523 12.3995C10.6661 12.383 10.6507 12.4029 10.6799 12.3742L10.681 12.3731C10.8903 12.167 11.0757 11.9208 11.2324 11.7403C11.4546 11.4843 11.5527 11.2587 11.6589 11.0479C11.8706 10.6277 11.7527 10.1653 11.6302 9.92209V9.92094C11.6387 9.93777 11.564 9.77292 11.4835 9.58275C11.4028 9.39205 11.2999 9.1448 11.19 8.88116C10.9702 8.35386 10.7249 7.76245 10.579 7.41606V7.41491C10.4071 7.0069 10.1745 6.71297 9.8705 6.57116C9.56646 6.42936 9.29785 6.46967 9.28698 6.46913H9.28584C9.06887 6.45912 8.83078 6.45652 8.59456 6.45652ZM8.59456 7.63043C8.82085 7.63043 9.04395 7.63319 9.23081 7.6419C9.42303 7.65148 9.41108 7.65226 9.37411 7.63502C9.33655 7.6175 9.38751 7.61182 9.49677 7.87118C9.63964 8.21035 9.88621 8.80391 10.1067 9.33284C10.2169 9.5973 10.32 9.8455 10.4024 10.0402C10.4848 10.2348 10.5295 10.3435 10.5813 10.4471V10.4483L10.5824 10.4494C10.6332 10.5497 10.6287 10.4855 10.6111 10.5205C10.4872 10.7663 10.4704 10.8267 10.3451 10.971C10.1543 11.1908 9.95974 11.4359 9.85674 11.5374C9.76663 11.6259 9.60403 11.7638 9.5025 12.0338C9.40083 12.3041 9.44828 12.6751 9.61141 12.952C9.82861 13.3207 10.5443 14.4857 11.6566 15.4649C12.3571 16.0824 13.0096 16.4911 13.531 16.7661C14.0523 17.0411 14.4769 17.2017 14.5719 17.2487C14.7975 17.3604 15.0441 17.4471 15.3308 17.4127C15.6175 17.3782 15.8647 17.2043 16.0221 17.0263L16.0232 17.0252C16.2327 16.7877 16.855 16.0772 17.1536 15.6392C17.1662 15.6436 17.1621 15.6402 17.2613 15.6759V15.677H17.2625C17.3078 15.6931 17.8753 15.9472 18.3814 16.1883C18.8874 16.4294 19.401 16.6801 19.5679 16.7627C19.8087 16.8819 19.9225 16.9595 19.9519 16.9598C19.9539 17.0115 19.9559 17.0674 19.9485 17.1524C19.9279 17.3882 19.8649 17.7145 19.7387 18.0638C19.6769 18.2348 19.3549 18.5875 18.9488 18.8445C18.5428 19.1015 18.0485 19.283 17.8655 19.31C17.3152 19.391 16.6617 19.4206 15.9441 19.1953C15.4465 19.0391 14.8261 18.837 14.0228 18.4949C12.3935 17.8 11.0087 16.6176 10.0195 15.5761C9.52494 15.0554 9.12868 14.5706 8.84676 14.2039C8.56538 13.8378 8.44251 13.6474 8.34006 13.5126L8.33891 13.5115C8.15705 13.271 7.04348 11.722 7.04348 10.3268C7.04348 8.85012 7.72934 8.27106 8.10046 7.87118C8.29529 7.66125 8.5083 7.63043 8.59456 7.63043Z" fill="white"/>
</svg>
